# xmcd
#
# Track frame offsets:
#	150
#	21255
#	39345
#	57160
#	82482
#	104497
#	126515
#	146410
#	162965
#	187140
#	212365
#	230107
#	255245
#	276567
#	295995
#
# Disc length: 4274 seconds
#
# Revision: 1
# Processed by: cddbd v1.5.2PL0 Copyright (c) Steve Scherf et al.
# Submitted via: EasyCDDAExtractor 6.2.0.3
#
DISCID=e910b00f
DTITLE=Various Artist - Spirits of Nature vol 5
DYEAR=1900
DGENRE=
TTITLE0=Emma Shapplin - Spente le stelle
TTITLE1=Avalone - kobidie
TTITLE2=Mike Oldfield - she moves through the fair
TTITLE3=David Sylvian - nostalgia
TTITLE4=Enigma - beyond the invisible
TTITLE5=Clannad - seanchas
TTITLE6=Adiemus - rain dance
TTITLE7=Oliver Shanti and Friends - water
TTITLE8=Massive Attack - teardrop
TTITLE9=Yanni - nightingale
TTITLE10=Air - you make it easy
TTITLE11=Symbian - espirito del auqa
TTITLE12=N' dungy - the a spirit
TTITLE13=Freud - euphoria
TTITLE14=Vangelis - conquest of paradise
EXTD=
EXTT0=
EXTT1=
EXTT2=
EXTT3=
EXTT4=
EXTT5=
EXTT6=
EXTT7=
EXTT8=
EXTT9=
EXTT10=
EXTT11=
EXTT12=
EXTT13=
EXTT14=
PLAYORDER=
